<?xml version="1.0" encoding="UTF-8" standalone="no"?><!DOCTYPE svg PUBLIC "-//W3C//DTD SVG 1.1//EN" "http://www.w3.org/Graphics/SVG/1.1/DTD/svg11.dtd"><svg width="101px" height="63px" version="1.1" xmlns="http://www.w3.org/2000/svg" xmlns:xlink="http://www.w3.org/1999/xlink" xml:space="preserve" xmlns:serif="http://www.serif.com/" style="fill-rule:evenodd;clip-rule:evenodd;stroke-linejoin:round;stroke-miterlimit:2;"><g transform="matrix(1,0,0,1,-1837.85,-766.442)"><g transform="matrix(0.661483,0,0,0.661483,-894.033,-434.552)"><g id="logo_complete" transform="matrix(0.160934,0,0,0.160934,3623.61,1582.65)"><path d="M3311.76,1799.48C3308.64,1798.9 3305.7,1797.95 3302.93,1796.65C3298.57,1794.61 3294.89,1791.92 3291.85,1788.62C3290.55,1790.46 3288.97,1792.18 3287.1,1793.77C3282,1798.1 3276.34,1800.13 3270.22,1800.13L3182.99,1800.13C3177.05,1800.13 3171.66,1798.93 3166.8,1796.65C3161.78,1794.3 3157.65,1791.08 3154.37,1787.08C3151.13,1783.14 3148.77,1778.52 3147.35,1773.16C3146.58,1770.24 3146.18,1767.21 3146.18,1764.08L3146.18,1734.05C3146.18,1731.57 3146.44,1729.02 3146.95,1726.4L3146.95,1726.4C3147.04,1725.9 3156.9,1669.49 3156.9,1669.49C3157.84,1663.91 3159.83,1658.65 3162.9,1653.72C3165.8,1649.07 3169.27,1645.03 3173.31,1641.61C3177.39,1638.15 3181.95,1635.4 3187,1633.36C3192.31,1631.22 3197.76,1630.16 3203.35,1630.16L3229.1,1630.16C3236.4,1630.16 3242.08,1632.94 3246.34,1638.11C3250.56,1643.24 3252.21,1649.36 3250.77,1656.56L3250.36,1658.9L3265.43,1658.9C3272.41,1658.9 3277.87,1661.55 3281.99,1666.47C3285.34,1670.46 3287.07,1675.1 3286.92,1680.44L3286.85,1705C3287.54,1701.1 3288.04,1698.25 3288.04,1698.26C3288.96,1692.72 3290.9,1687.5 3293.85,1682.61C3296.7,1677.9 3300.17,1673.82 3304.26,1670.35C3308.33,1666.9 3312.89,1664.15 3317.94,1662.11C3318.94,1661.7 3319.95,1661.34 3320.96,1661.01C3357.82,1547.73 3464.33,1465.76 3589.84,1465.76C3714.57,1465.76 3820.53,1546.72 3858.02,1658.9L3859.47,1658.9C3865.41,1658.9 3870.8,1660.11 3875.66,1662.38C3880.61,1664.71 3884.74,1667.87 3888.07,1671.81C3891.49,1675.85 3893.92,1680.6 3895.26,1686.09C3895.99,1689.04 3896.36,1692.1 3896.36,1695.27L3896.36,1725.27C3896.36,1727.59 3896.16,1729.96 3895.75,1732.4C3895.74,1732.44 3895.74,1732.48 3895.73,1732.52C3895.73,1732.52 3894.15,1741.52 3892.76,1749.37C3897.41,1750.46 3901.24,1752.95 3904.32,1756.69C3906.88,1759.79 3908.49,1763.25 3909.05,1767.09C3909.34,1769.09 3909.34,1771.18 3909.05,1773.39L3909.05,1788.38L3909.1,1788.07C3910.04,1782.49 3912.03,1777.23 3915.1,1772.3C3918,1767.65 3921.48,1763.62 3925.51,1760.19C3929.59,1756.74 3934.15,1753.98 3939.2,1751.94C3944.51,1749.8 3949.97,1748.74 3955.56,1748.74L3987.09,1748.74C3993.04,1748.74 3997.49,1751.13 4000.72,1755.35C4002.94,1758.25 4004.21,1761.59 4004.29,1765.39C4004.3,1765.68 4004.3,1765.96 4004.29,1766.26L4004.22,1794.14C4004.37,1795.7 4004.3,1797.35 4004.01,1799.09C4004.01,1799.12 4004,1799.15 4004,1799.19L4001.23,1815.01L4014.44,1815.01C4014.64,1815.01 4014.75,1814.83 4014.91,1814.7C4015.31,1814.35 4015.62,1813.97 4015.75,1813.49L4019.49,1792.03C4019.53,1791.84 4019.56,1791.65 4019.61,1791.47C4020.47,1787.56 4022.43,1784.3 4025.47,1781.69C4028.77,1778.86 4032.55,1777.49 4036.8,1777.49C4042.69,1777.49 4048.09,1778.66 4053,1780.92C4058.11,1783.28 4062.33,1786.53 4065.7,1790.61C4069.08,1794.7 4071.45,1799.4 4072.78,1804.72C4073.62,1808.1 4073.97,1811.66 4073.77,1815.38C4077.66,1816.16 4080.84,1818.18 4083.37,1821.26C4085.97,1824.41 4087.36,1828.04 4087.33,1832.21L4087.33,1861.31L4087.32,1861.32C4087.37,1862.61 4087.29,1863.95 4087.05,1865.36C4087.05,1865.38 4087.05,1865.39 4087.04,1865.41L4084.65,1879.38C4084.63,1879.5 4084.61,1879.61 4084.59,1879.73C4083.5,1885.14 4081.52,1890.23 4078.64,1895.01C4075.79,1899.72 4072.32,1903.8 4068.24,1907.27C4064.16,1910.72 4059.6,1913.48 4054.55,1915.51C4049.24,1917.66 4043.79,1918.72 4038.19,1918.72C4032.82,1918.72 4028.78,1916.6 4025.8,1913.02C4022.79,1909.41 4021.43,1905.01 4022.52,1899.67L4025.35,1883.39L3989.22,1883.39C3988.01,1890.27 3985.84,1902.54 3985.85,1902.5C3985.1,1906.98 3982.96,1910.87 3979.22,1914.04C3975.45,1917.25 3971.26,1918.72 3966.73,1918.72L3935.2,1918.72C3929.25,1918.72 3923.86,1917.52 3919.01,1915.24C3914.67,1913.2 3911.01,1910.53 3907.97,1907.27C3906.68,1909.4 3905,1911.33 3902.94,1913.08C3898.43,1916.88 3893.33,1918.72 3887.69,1918.72L3840.98,1918.72C3835.03,1918.72 3829.65,1917.52 3824.79,1915.24C3823.08,1914.43 3821.48,1913.53 3819.97,1912.54C3768.69,1984.3 3684.69,2031.12 3589.84,2031.12C3451.25,2031.12 3335.82,1931.17 3311.76,1799.48ZM3316.29,1676.97C3314.91,1677.85 3313.59,1678.82 3312.34,1679.89C3309.28,1682.48 3306.68,1685.54 3304.55,1689.07C3302.43,1692.6 3301.03,1696.36 3300.36,1700.35L3295.37,1728.69C3294.71,1732.68 3294.81,1736.44 3295.67,1739.97C3296.54,1743.5 3298.03,1746.56 3300.16,1749.15C3302.07,1751.47 3304.42,1753.37 3307.23,1754.84C3307.56,1755.01 3307.9,1755.18 3308.25,1755.34C3311.51,1756.87 3315.13,1757.63 3319.12,1757.63L3406.36,1757.63C3408.71,1757.63 3410.92,1757.02 3412.98,1755.79C3413.72,1755.36 3414.44,1754.84 3415.14,1754.24C3417.8,1751.98 3419.4,1749.25 3419.93,1746.06L3420.13,1744.66C3420.39,1743.06 3420.1,1741.7 3419.23,1740.57C3418.37,1739.44 3417.13,1738.87 3415.54,1738.87L3368.23,1738.87C3365.97,1738.87 3364.14,1738.07 3362.74,1736.48C3361.34,1734.88 3360.84,1732.95 3361.24,1730.69C3361.64,1728.43 3362.81,1726.46 3364.74,1724.8C3366.67,1723.14 3368.76,1722.31 3371.02,1722.31L3431.91,1722.31C3435.19,1722.31 3438.41,1721.7 3441.58,1720.51C3441.75,1720.44 3441.92,1720.38 3442.09,1720.31C3445.41,1718.98 3448.44,1717.15 3451.17,1714.82C3453.89,1712.49 3456.19,1709.8 3458.05,1706.74C3459.92,1703.67 3461.19,1700.42 3461.85,1696.95C3461.91,1696.61 3461.97,1696.27 3462.02,1695.92C3462.49,1692.72 3462.37,1689.74 3461.65,1686.97C3460.85,1683.91 3459.48,1681.22 3457.56,1678.89C3455.62,1676.56 3453.23,1674.73 3450.37,1673.4C3449.24,1672.88 3448.07,1672.46 3446.86,1672.14C3444.98,1671.65 3442.99,1671.4 3440.89,1671.4L3334.3,1671.4C3333.11,1671.4 3331.93,1671.47 3330.76,1671.61C3327.99,1671.93 3325.28,1672.62 3322.62,1673.7C3320.38,1674.6 3318.27,1675.69 3316.29,1676.97ZM3844.8,1658.9C3832.63,1624.28 3813.6,1592.88 3789.35,1566.33C3770.44,1577.04 3748.83,1586.26 3725.14,1593.62C3733.27,1615.42 3739.74,1639.34 3744.23,1664.82C3744.87,1665.47 3745.48,1666.16 3746.06,1666.9C3747.37,1668.58 3748.41,1670.38 3749.16,1672.29C3750.61,1669.62 3752.58,1667.19 3755.1,1665.03C3759.93,1660.87 3765.34,1658.9 3771.24,1658.9L3844.8,1658.9ZM3730.45,1658.93C3726.16,1636.9 3720.31,1616.16 3713.15,1597.13C3675.91,1607.41 3634.07,1613.2 3589.84,1613.2C3545.61,1613.2 3503.76,1607.41 3466.52,1597.13C3459.26,1616.42 3453.36,1637.45 3449.05,1659.81C3451.35,1660.33 3453.55,1661.09 3455.64,1662.07C3460.24,1664.21 3464.08,1667.17 3467.18,1670.91C3468.47,1672.47 3469.6,1674.12 3470.58,1675.87C3472.28,1673.88 3474.12,1672.05 3476.12,1670.35C3480.2,1666.9 3484.76,1664.15 3489.81,1662.11C3495.12,1659.97 3500.57,1658.9 3506.16,1658.9L3594.59,1658.9C3601.74,1658.9 3607.26,1661.7 3611.32,1666.9C3611.82,1667.54 3612.28,1668.19 3612.7,1668.86C3616.29,1666.1 3620.24,1663.84 3624.54,1662.11C3629.85,1659.97 3635.31,1658.9 3640.9,1658.9L3729.32,1658.9C3729.7,1658.9 3730.08,1658.91 3730.45,1658.93ZM3436.53,1658.9C3440.95,1635.63 3447.04,1613.72 3454.54,1593.62C3430.85,1586.26 3409.24,1577.04 3390.33,1566.33C3366.07,1592.88 3347.04,1624.28 3334.87,1658.9L3436.53,1658.9ZM3840.98,1876.22L3887.69,1876.22C3890.35,1876.22 3892.75,1875.32 3894.88,1873.52C3895.88,1872.67 3896.69,1871.73 3897.31,1870.69C3898,1869.53 3898.46,1868.24 3898.67,1866.84C3898.86,1865.54 3898.84,1864.34 3898.61,1863.25C3898.37,1862.1 3897.89,1861.07 3897.17,1860.15C3895.77,1858.35 3893.74,1857.45 3891.08,1857.45C3888.42,1857.45 3886.33,1856.59 3884.79,1854.86C3883.26,1853.13 3882.76,1850.93 3883.3,1848.27L3896.47,1772.82C3897.14,1769.62 3896.54,1766.9 3894.68,1764.63C3893.55,1763.27 3892.19,1762.32 3890.58,1761.78C3889.52,1761.42 3888.36,1761.24 3887.09,1761.24L3861.34,1761.24C3857.35,1761.24 3853.46,1762.01 3849.66,1763.54C3846.6,1764.78 3843.77,1766.36 3841.18,1768.29C3840.57,1768.75 3839.97,1769.23 3839.38,1769.73C3836.32,1772.32 3833.69,1775.38 3831.5,1778.91C3829.3,1782.43 3827.87,1786.19 3827.21,1790.18L3817.23,1847.27C3816.43,1851.27 3816.49,1855.03 3817.43,1858.55C3818.36,1862.08 3819.89,1865.14 3822.02,1867.73C3823.97,1870.12 3826.41,1872.06 3829.33,1873.54C3829.58,1873.67 3829.84,1873.8 3830.1,1873.92C3833.36,1875.45 3836.99,1876.22 3840.98,1876.22ZM3872.46,1742.65C3873.09,1741.79 3873.68,1740.9 3874.24,1739.97C3876.37,1736.44 3877.77,1732.68 3878.43,1728.69L3883.42,1700.35C3883.58,1699.39 3883.7,1698.45 3883.77,1697.53C3884,1694.57 3883.78,1691.75 3883.12,1689.07C3882.26,1685.54 3880.73,1682.48 3878.53,1679.89C3876.34,1677.29 3873.61,1675.23 3870.35,1673.7C3867.76,1672.49 3864.95,1671.75 3861.9,1671.5C3861.11,1671.44 3860.3,1671.4 3859.47,1671.4L3771.24,1671.4C3768.31,1671.4 3765.65,1672.43 3763.26,1674.5C3760.86,1676.56 3759.4,1679.06 3758.87,1681.98C3758.33,1684.91 3758.93,1687.37 3760.66,1689.37C3761.1,1689.87 3761.57,1690.31 3762.07,1690.68C3763.59,1691.8 3765.45,1692.36 3767.65,1692.36L3843.3,1692.36C3845.56,1692.36 3847.36,1693.19 3848.69,1694.86C3850.02,1696.52 3850.49,1698.48 3850.09,1700.75C3849.69,1703.01 3848.52,1704.94 3846.59,1706.54C3844.66,1708.13 3842.57,1708.93 3840.31,1708.93L3745.29,1708.93C3742.62,1708.93 3739.98,1709.34 3737.39,1710.16C3736.76,1710.36 3736.14,1710.58 3735.51,1710.83C3732.32,1712.09 3729.42,1713.82 3726.83,1716.02C3724.23,1718.21 3722.04,1720.81 3720.24,1723.8C3718.44,1726.8 3717.28,1729.96 3716.75,1733.28C3716.22,1736.61 3716.32,1739.77 3717.05,1742.77C3717.78,1745.76 3719.04,1748.35 3720.84,1750.55C3722.64,1752.75 3724.9,1754.48 3727.63,1755.74C3727.67,1755.76 3727.71,1755.78 3727.75,1755.79C3730.44,1757.02 3733.43,1757.63 3736.71,1757.63L3844.3,1757.63C3847.87,1757.63 3851.37,1757.02 3854.78,1755.79C3855.18,1755.65 3855.58,1755.5 3855.97,1755.34C3857.35,1754.79 3858.68,1754.16 3859.97,1753.47C3862.23,1752.24 3864.36,1750.81 3866.36,1749.15C3868.66,1747.24 3870.7,1745.07 3872.46,1742.65ZM3324.61,1800.13C3334.24,1849.79 3357.5,1894.61 3390.33,1930.55C3409.24,1919.83 3430.85,1910.62 3454.54,1903.26C3441.64,1868.7 3432.92,1828.81 3429.68,1785.85C3428.15,1788.76 3426.01,1791.4 3423.23,1793.77C3418.13,1798.1 3412.47,1800.13 3406.36,1800.13L3324.61,1800.13ZM3452.73,1768.29L3441.18,1768.29C3443.14,1816.71 3452.19,1861.64 3466.52,1899.75C3476.48,1897 3486.77,1894.57 3497.35,1892.49C3497.28,1892.24 3497.21,1891.99 3497.14,1891.74C3496.37,1888.82 3495.97,1885.79 3495.97,1882.66L3495.97,1852.63C3495.98,1850.15 3496.23,1847.6 3496.74,1844.99L3496.74,1844.98C3496.8,1844.63 3501.68,1816.74 3504.58,1800.13L3473.62,1800.13C3466.33,1800.13 3460.64,1797.36 3456.39,1792.19C3452.24,1787.15 3450.53,1781.12 3451.71,1774C3451.72,1773.95 3451.73,1773.9 3451.74,1773.86L3452.73,1768.29ZM3503.17,1904.4C3492.21,1906.46 3481.57,1908.9 3471.28,1911.7C3480.28,1933.03 3491.01,1951.91 3503.1,1967.7C3527.47,1999.5 3557.33,2018.62 3589.84,2018.62C3622.34,2018.62 3652.2,1999.5 3676.57,1967.7C3687.32,1953.67 3696.99,1937.18 3705.33,1918.72L3660.93,1918.72C3655.68,1918.72 3650.91,1917.66 3646.59,1915.66C3643.66,1914.3 3641.07,1912.61 3638.79,1910.59C3638.19,1911.19 3637.56,1911.78 3636.89,1912.35C3631.79,1916.68 3626.13,1918.72 3620.01,1918.72L3532.78,1918.72C3526.84,1918.72 3521.45,1917.52 3516.59,1915.24C3511.57,1912.88 3507.44,1909.66 3504.16,1905.66C3503.82,1905.25 3503.49,1904.83 3503.17,1904.4ZM3718.94,1918.72C3709.7,1940.22 3698.76,1959.3 3686.49,1975.31C3674.82,1990.55 3661.93,2003.03 3648.14,2012.3C3699,2001.09 3744.51,1975.54 3780.19,1940.1C3765.44,1931.97 3749.05,1924.79 3731.31,1918.72L3718.94,1918.72ZM3766.02,1918.72C3774.18,1922.42 3781.97,1926.37 3789.35,1930.55C3797.08,1922.09 3804.27,1913.14 3810.89,1903.74C3809.55,1901.87 3808.4,1899.85 3807.43,1897.69C3804.91,1901.32 3801.95,1904.54 3798.56,1907.35C3794.44,1910.77 3789.88,1913.5 3784.88,1915.51C3779.57,1917.66 3774.11,1918.72 3768.52,1918.72L3766.02,1918.72ZM3467.65,1755.79C3469.28,1757.02 3471.27,1757.63 3473.62,1757.63L3522.53,1757.63C3524.12,1757.63 3525.59,1757.07 3526.92,1755.94C3526.97,1755.89 3527.03,1755.84 3527.09,1755.79C3528.32,1754.69 3529.06,1753.38 3529.31,1751.85L3537.7,1703.94C3538.36,1700.75 3540.03,1698.02 3542.69,1695.76C3545.35,1693.49 3548.28,1692.36 3551.47,1692.36L3590.6,1692.36C3593.52,1692.36 3596.18,1691.4 3598.58,1689.47C3598.66,1689.4 3598.75,1689.33 3598.83,1689.26C3601.08,1687.37 3602.46,1685.08 3602.97,1682.38C3603.64,1679.32 3603.14,1676.73 3601.47,1674.6C3599.81,1672.47 3597.51,1671.4 3594.59,1671.4L3506.16,1671.4C3502.17,1671.4 3498.28,1672.17 3494.48,1673.7C3490.69,1675.23 3487.26,1677.29 3484.2,1679.89C3481.14,1682.48 3478.55,1685.54 3476.42,1689.07C3474.29,1692.6 3472.89,1696.36 3472.23,1700.35L3464.04,1746.06C3463.51,1749.25 3464.18,1751.98 3466.04,1754.24C3466.53,1754.84 3467.07,1755.36 3467.65,1755.79ZM3602.39,1755.79C3604.01,1757.02 3606.01,1757.63 3608.36,1757.63L3657.26,1757.63C3658.86,1757.63 3660.33,1757.07 3661.66,1755.94C3661.71,1755.89 3661.77,1755.84 3661.82,1755.79C3663.05,1754.69 3663.8,1753.38 3664.05,1751.85L3672.43,1703.94C3673.1,1700.75 3674.76,1698.02 3677.43,1695.76C3680.09,1693.49 3683.01,1692.36 3686.21,1692.36L3725.33,1692.36C3728.26,1692.36 3730.92,1691.4 3733.32,1689.47C3735.71,1687.54 3737.14,1685.17 3737.71,1682.38C3738.33,1679.31 3737.87,1676.73 3736.21,1674.6C3735.27,1673.4 3734.14,1672.54 3732.8,1672.01C3731.76,1671.61 3730.6,1671.4 3729.32,1671.4L3640.9,1671.4C3636.9,1671.4 3633.01,1672.17 3629.22,1673.7C3625.43,1675.23 3622,1677.29 3618.94,1679.89C3615.88,1682.48 3613.28,1685.54 3611.15,1689.07C3610.18,1690.68 3609.36,1692.35 3608.69,1694.06C3607.9,1696.09 3607.32,1698.18 3606.96,1700.35L3598.78,1746.06C3598.25,1749.25 3598.91,1751.98 3600.78,1754.24C3601.26,1754.84 3601.8,1755.36 3602.39,1755.79ZM3588.31,1768.29C3588.18,1767.74 3587.99,1767.19 3587.76,1766.68C3587.43,1765.96 3587.01,1765.28 3586.48,1764.63C3584.62,1762.37 3582.09,1761.24 3578.89,1761.24L3553.14,1761.24C3550.53,1761.24 3547.96,1761.57 3545.44,1762.22C3544.1,1762.57 3542.78,1763.01 3541.47,1763.54C3538.4,1764.78 3535.57,1766.36 3532.98,1768.29C3532.37,1768.75 3531.77,1769.23 3531.19,1769.73C3528.12,1772.32 3525.5,1775.38 3523.3,1778.91C3521.11,1782.43 3519.68,1786.19 3519.01,1790.18L3509.03,1847.27C3508.23,1851.27 3508.3,1855.03 3509.23,1858.55C3510.16,1862.08 3511.69,1865.14 3513.82,1867.73C3515.95,1870.33 3518.64,1872.39 3521.9,1873.92C3525.16,1875.45 3528.79,1876.22 3532.78,1876.22L3620.01,1876.22C3621.96,1876.22 3623.81,1875.8 3625.56,1874.95C3626.68,1874.41 3627.76,1873.7 3628.8,1872.82C3631.46,1870.56 3633.05,1867.83 3633.59,1864.64L3633.78,1863.24C3634.05,1861.64 3633.75,1860.28 3632.89,1859.15C3632.02,1858.02 3630.79,1857.45 3629.19,1857.45L3585.08,1857.45C3581.89,1857.45 3579.33,1856.32 3577.4,1854.06C3575.47,1851.8 3574.83,1849.07 3575.5,1845.88L3580.69,1816.73C3580.95,1815.14 3581.75,1813.77 3583.09,1812.64C3584.41,1811.51 3585.88,1810.94 3587.48,1810.94L3611.63,1810.94C3614.56,1810.94 3617.22,1809.95 3619.61,1807.95C3619.64,1807.93 3619.67,1807.9 3619.7,1807.88C3622.04,1805.9 3623.48,1803.46 3624.01,1800.57C3624.03,1800.42 3624.05,1800.28 3624.08,1800.13C3624.47,1797.39 3623.85,1795.04 3622.21,1793.08C3620.48,1791.02 3618.15,1789.99 3615.22,1789.99L3591.07,1789.99C3589.47,1789.99 3588.21,1789.42 3587.28,1788.29C3586.35,1787.16 3586.01,1785.79 3586.28,1784.2L3588.27,1772.82C3588.61,1771.19 3588.62,1769.68 3588.31,1768.29ZM3783.69,1789.99L3695.47,1789.99C3692.54,1789.99 3689.88,1791.02 3687.48,1793.08C3685.09,1795.14 3683.62,1797.64 3683.09,1800.57C3682.56,1803.49 3683.16,1805.95 3684.89,1807.95C3685.32,1808.45 3685.79,1808.89 3686.3,1809.26C3687.82,1810.38 3689.68,1810.94 3691.87,1810.94L3767.52,1810.94C3769.79,1810.94 3771.58,1811.78 3772.91,1813.44C3774.24,1815.1 3774.71,1817.07 3774.31,1819.33C3773.91,1821.59 3772.75,1823.52 3770.82,1825.12C3768.89,1826.71 3766.79,1827.51 3764.53,1827.51L3669.52,1827.51C3666.19,1827.51 3662.93,1828.14 3659.74,1829.41C3656.54,1830.67 3653.65,1832.4 3651.05,1834.6C3648.46,1836.79 3646.26,1839.39 3644.47,1842.38C3642.67,1845.38 3641.5,1848.54 3640.97,1851.86C3640.68,1853.68 3640.58,1855.44 3640.66,1857.16C3640.74,1858.59 3640.94,1859.99 3641.27,1861.35C3642,1864.34 3643.27,1866.93 3645.06,1869.13C3646.86,1871.33 3649.12,1873.06 3651.85,1874.32C3654.58,1875.58 3657.61,1876.22 3660.93,1876.22L3768.52,1876.22C3772.51,1876.22 3776.41,1875.45 3780.2,1873.92C3783.99,1872.39 3787.45,1870.33 3790.58,1867.73C3793.71,1865.14 3796.33,1862.08 3798.46,1858.55C3800.59,1855.03 3801.99,1851.27 3802.66,1847.27L3807.64,1818.93C3807.8,1817.98 3807.92,1817.03 3807.99,1816.11C3808.22,1813.15 3808,1810.34 3807.35,1807.65C3806.66,1804.85 3805.55,1802.35 3804.03,1800.13C3803.63,1799.56 3803.21,1799 3802.76,1798.47C3800.56,1795.87 3797.83,1793.81 3794.57,1792.28C3791.31,1790.75 3787.68,1789.99 3783.69,1789.99ZM3703.92,1755.79L3703.92,1738.21C3703.89,1737.11 3703.92,1735.99 3704,1734.86L3686.21,1734.86C3685.93,1734.86 3685.75,1735.09 3685.52,1735.28C3685.14,1735.61 3684.82,1735.95 3684.7,1736.39C3684.7,1736.39 3683.1,1745.53 3681.3,1755.79L3703.92,1755.79ZM3703.92,1768.29L3679.11,1768.29C3677.6,1776.95 3676.37,1783.97 3676.37,1783.97C3676.13,1785.35 3675.77,1786.67 3675.26,1787.94C3676.41,1786.4 3677.76,1784.95 3679.32,1783.61C3684.15,1779.45 3689.56,1777.49 3695.47,1777.49L3705.38,1777.49C3705.21,1776.91 3705.05,1776.33 3704.91,1775.73C3704.32,1773.32 3703.98,1770.84 3703.92,1768.29ZM3636.65,1800.13C3636.58,1801.01 3636.47,1801.89 3636.3,1802.8C3635.52,1807.08 3633.78,1810.88 3631.02,1814.18C3631.28,1814.46 3631.53,1814.75 3631.78,1815.05C3635.74,1819.76 3637.43,1825.36 3636.44,1831.95C3638.37,1829.41 3640.55,1827.11 3642.98,1825.06C3646.61,1821.98 3650.66,1819.56 3655.13,1817.79C3659.83,1815.93 3664.62,1815.01 3669.52,1815.01L3674.52,1815.01C3671,1810.4 3669.6,1804.88 3670.79,1798.33C3671.16,1796.33 3671.73,1794.42 3672.53,1792.62C3671.72,1793.62 3670.8,1794.57 3669.75,1795.46C3665.98,1798.67 3661.79,1800.13 3657.26,1800.13L3636.65,1800.13ZM3790.4,1738.87C3788.14,1738.87 3786.31,1738.07 3784.91,1736.48C3783.52,1734.88 3783.02,1732.95 3783.42,1730.69C3783.82,1728.43 3784.98,1726.46 3786.91,1724.8C3788.84,1723.14 3790.94,1722.31 3793.2,1722.31L3837.91,1722.31C3840.17,1722.31 3842,1723.14 3843.4,1724.8C3844.8,1726.46 3845.3,1728.43 3844.9,1730.69C3844.5,1732.95 3843.33,1734.88 3841.4,1736.48C3839.47,1738.07 3837.38,1738.87 3835.12,1738.87L3790.4,1738.87ZM3399.48,1940.1C3435.16,1975.54 3480.67,2001.09 3531.53,2012.3C3517.75,2003.03 3504.86,1990.55 3493.18,1975.31C3480.25,1958.43 3468.79,1938.14 3459.24,1915.18C3437.3,1921.93 3417.2,1930.34 3399.48,1940.1ZM3275.77,1756.37C3276.89,1755.83 3277.97,1755.12 3279,1754.24C3281.66,1751.98 3283.26,1749.25 3283.8,1746.06L3283.99,1744.66C3284.26,1743.06 3283.96,1741.7 3283.1,1740.57C3282.23,1739.44 3281,1738.87 3279.4,1738.87L3235.29,1738.87C3232.1,1738.87 3229.53,1737.74 3227.6,1735.48C3225.68,1733.22 3225.04,1730.49 3225.71,1727.3L3230.9,1698.15C3231.16,1696.56 3231.96,1695.19 3233.29,1694.06C3234.62,1692.93 3236.09,1692.36 3237.68,1692.36L3261.84,1692.36C3264.76,1692.36 3267.43,1691.37 3269.82,1689.37C3269.85,1689.35 3269.88,1689.32 3269.9,1689.3C3272.25,1687.32 3273.69,1684.88 3274.21,1681.98C3274.75,1679.06 3274.15,1676.56 3272.42,1674.5C3270.69,1672.43 3268.36,1671.4 3265.43,1671.4L3241.28,1671.4C3239.68,1671.4 3238.42,1670.84 3237.49,1669.71C3236.55,1668.58 3236.22,1667.21 3236.49,1665.62L3238.48,1654.24C3239.15,1651.04 3238.55,1648.32 3236.69,1646.05C3234.82,1643.79 3232.3,1642.66 3229.1,1642.66L3203.35,1642.66C3199.36,1642.66 3195.47,1643.42 3191.68,1644.96C3187.88,1646.49 3184.46,1648.55 3181.39,1651.14C3178.33,1653.74 3175.71,1656.8 3173.51,1660.33C3171.32,1663.85 3169.88,1667.61 3169.22,1671.6L3159.24,1728.69C3158.44,1732.68 3158.51,1736.44 3159.44,1739.97C3160.37,1743.5 3161.9,1746.56 3164.03,1749.15C3166.16,1751.75 3168.85,1753.81 3172.11,1755.34C3175.37,1756.87 3179,1757.63 3182.99,1757.63L3270.22,1757.63C3272.17,1757.63 3274.02,1757.21 3275.77,1756.37ZM3531.53,1484.58C3480.67,1495.78 3435.16,1521.34 3399.48,1556.78C3417.2,1566.54 3437.3,1574.94 3459.24,1581.69C3468.79,1558.74 3480.25,1538.45 3493.18,1521.57C3504.86,1506.33 3517.75,1493.85 3531.53,1484.58ZM3780.19,1556.78C3744.51,1521.34 3699,1495.78 3648.14,1484.58C3661.93,1493.85 3674.82,1506.33 3686.49,1521.57C3699.43,1538.45 3710.88,1558.74 3720.44,1581.69C3742.38,1574.94 3762.47,1566.54 3780.19,1556.78ZM3708.39,1585.18C3699.39,1563.85 3688.67,1544.96 3676.57,1529.17C3652.2,1497.37 3622.34,1478.26 3589.84,1478.26C3557.33,1478.26 3527.47,1497.37 3503.1,1529.17C3491.01,1544.96 3480.28,1563.85 3471.28,1585.18C3507.12,1594.92 3547.35,1600.38 3589.84,1600.38C3632.32,1600.38 3672.55,1594.92 3708.39,1585.18ZM3373.42,1708.93C3371.16,1708.93 3369.33,1708.13 3367.93,1706.54C3366.53,1704.94 3366.03,1703.01 3366.43,1700.75C3366.83,1698.48 3368.03,1696.52 3370.03,1694.86C3372.02,1693.19 3374.15,1692.36 3376.41,1692.36L3421.13,1692.36C3423.39,1692.36 3425.18,1693.19 3426.51,1694.86C3427.85,1696.52 3428.31,1698.48 3427.91,1700.75C3427.51,1703.01 3426.35,1704.94 3424.42,1706.54C3422.49,1708.13 3420.39,1708.93 3418.13,1708.93L3373.42,1708.93ZM4028.61,1840.89C4031.81,1840.89 4034.37,1842.02 4036.3,1844.28C4038.23,1846.54 4038.86,1849.27 4038.19,1852.46L4034.8,1872.03C4034.54,1873.22 4034.74,1874.22 4035.4,1875.02C4036.07,1875.82 4037,1876.22 4038.19,1876.22C4042.19,1876.22 4046.08,1875.45 4049.87,1873.92C4053.66,1872.39 4057.09,1870.33 4060.15,1867.73C4063.21,1865.14 4065.81,1862.08 4067.94,1858.55C4070.07,1855.03 4071.53,1851.27 4072.33,1847.27L4074.72,1833.3C4074.99,1831.7 4074.66,1830.34 4073.72,1829.21C4072.84,1828.13 4071.65,1827.57 4070.16,1827.52C4070.09,1827.51 4070.01,1827.51 4069.93,1827.51L4064.94,1827.51C4063.35,1827.51 4062.08,1826.95 4061.15,1825.82C4060.22,1824.68 4059.89,1823.32 4060.15,1821.72L4060.75,1818.93C4060.94,1817.96 4061.09,1817 4061.18,1816.06C4061.48,1813.14 4061.31,1810.37 4060.65,1807.75C4059.79,1804.29 4058.26,1801.23 4056.06,1798.57C4053.86,1795.91 4051.1,1793.81 4047.78,1792.28C4044.45,1790.75 4040.79,1789.99 4036.8,1789.99C4035.6,1789.99 4034.54,1790.38 4033.6,1791.18C4032.67,1791.98 4032.07,1792.98 4031.81,1794.18L4028.01,1815.93C4027.35,1819.13 4025.72,1821.86 4023.12,1824.12C4021.72,1825.34 4020.24,1826.23 4018.66,1826.79C4017.32,1827.27 4015.91,1827.51 4014.44,1827.51L3986.89,1827.51C3985.3,1827.51 3984.03,1826.95 3983.1,1825.82C3982.17,1824.68 3981.84,1823.32 3982.1,1821.72L3991.68,1767.03C3991.95,1765.43 3991.65,1764.07 3990.79,1762.94C3989.92,1761.81 3988.69,1761.24 3987.09,1761.24L3955.56,1761.24C3951.56,1761.24 3947.67,1762.01 3943.88,1763.54C3940.09,1765.07 3936.66,1767.13 3933.6,1769.73C3930.54,1772.32 3927.91,1775.38 3925.71,1778.91C3923.52,1782.43 3922.09,1786.19 3921.42,1790.18L3911.44,1847.27C3910.64,1851.27 3910.71,1855.03 3911.64,1858.55C3912.57,1862.08 3914.1,1865.14 3916.23,1867.73C3918.36,1870.33 3921.06,1872.39 3924.32,1873.92C3927.58,1875.45 3931.2,1876.22 3935.2,1876.22L3966.73,1876.22C3968.33,1876.22 3969.8,1875.65 3971.13,1874.52C3972.46,1873.39 3973.26,1872.03 3973.52,1870.43L3977.71,1846.67C3977.98,1845.08 3978.78,1843.71 3980.11,1842.58C3981.44,1841.45 3982.9,1840.89 3984.5,1840.89L4028.61,1840.89ZM3547.74,1749.08C3549.53,1748.85 3551.33,1748.74 3553.14,1748.74L3578.89,1748.74C3581.51,1748.74 3583.92,1749.1 3586.13,1749.8C3586.01,1747.95 3586.11,1746.02 3586.45,1744C3586.46,1743.95 3586.47,1743.9 3586.47,1743.86L3588.08,1734.86L3551.47,1734.86C3551.2,1734.86 3551.01,1735.09 3550.78,1735.28C3550.4,1735.61 3550.09,1735.95 3549.96,1736.39L3547.74,1749.08ZM3759.34,1857.45L3714.63,1857.45C3712.37,1857.45 3710.53,1856.65 3709.14,1855.06C3707.74,1853.46 3707.24,1851.53 3707.64,1849.27C3708.04,1847.01 3709.2,1845.04 3711.13,1843.38C3713.06,1841.72 3715.16,1840.89 3717.42,1840.89L3762.13,1840.89C3764.4,1840.89 3766.23,1841.72 3767.62,1843.38C3769.02,1845.04 3769.52,1847.01 3769.12,1849.27C3768.72,1851.53 3767.56,1853.46 3765.63,1855.06C3763.7,1856.65 3761.6,1857.45 3759.34,1857.45ZM3264.7,1580.75C3283.22,1574.01 3287.41,1552.2 3289.99,1531.34C3292.57,1552.2 3296.76,1574.01 3315.28,1580.75C3296.76,1587.5 3292.57,1609.3 3289.99,1630.16C3287.41,1609.3 3283.22,1587.5 3264.7,1580.75ZM3334.23,1496.92C3352.74,1490.17 3356.94,1468.37 3359.52,1447.51C3362.1,1468.37 3366.29,1490.17 3384.8,1496.92C3366.29,1503.66 3362.1,1525.47 3359.52,1546.33C3356.94,1525.47 3352.74,1503.66 3334.23,1496.92Z"/></g></g></g></svg>